HIERARCHY
ROOT Hips
{
	OFFSET	0.00	0.00	0.00
	CHANNELS 6 Xposition Yposition Zposition Zrotation Xrotation Yrotation
	JOINT LeftUpLeg
	{
		OFFSET	 0.126116	-0.065224	 0.014019
		CHANNELS 3 Zrotation Xrotation Yrotation
		JOINT LeftLeg
		{
			OFFSET	 0.000000	 0.569914	 0.000000
			CHANNELS 3 Zrotation Xrotation Yrotation
			JOINT LeftFoot
			{
				OFFSET	 0.000000	 0.544423	 0.000000
				CHANNELS 3 Zrotation Xrotation Yrotation
				JOINT LeftToeBase
				{
					OFFSET	 0.000000	 0.207117	 0.000000
					CHANNELS 3 Zrotation Xrotation Yrotation
					End Site
					{
						OFFSET	 0.000000	 0.207117	 0.000000
					}
				}
			}
		}
	}
	JOINT RightUpLeg
	{
		OFFSET	-0.124023	-0.065224	 0.008373
		CHANNELS 3 Zrotation Xrotation Yrotation
		JOINT RightLeg
		{
			OFFSET	 0.000000	 0.570047	 0.000000
			CHANNELS 3 Zrotation Xrotation Yrotation
			JOINT RightFoot
			{
				OFFSET	 0.000000	 0.544354	 0.000000
				CHANNELS 3 Zrotation Xrotation Yrotation
				JOINT RightToeBase
				{
					OFFSET	 0.000000	 0.207540	 0.000000
					CHANNELS 3 Zrotation Xrotation Yrotation
					End Site
					{
						OFFSET	 0.000000	 0.207540	 0.000000
					}
				}
			}
		}
	}
	JOINT Spine
	{
		OFFSET	 0.000184	 0.117403	 0.007763
		CHANNELS 3 Zrotation Xrotation Yrotation
		JOINT Spine1
		{
			OFFSET	 0.000000	 0.137269	 0.000000
			CHANNELS 3 Zrotation Xrotation Yrotation
			JOINT Spine2
			{
				OFFSET	 0.000000	 0.156879	 0.000000
				CHANNELS 3 Zrotation Xrotation Yrotation
				JOINT LeftShoulder
				{
					OFFSET	 0.080501	 0.160143	 0.002496
					CHANNELS 3 Zrotation Xrotation Yrotation
					JOINT LeftArm
					{
						OFFSET	 0.000000	 0.164363	 0.000000
						CHANNELS 3 Zrotation Xrotation Yrotation
						JOINT LeftForeArm
						{
							OFFSET	 0.000000	 0.364576	 0.000000
							CHANNELS 3 Zrotation Xrotation Yrotation
							JOINT LeftHand
							{
								OFFSET	 0.000000	 0.360812	 0.000000
								CHANNELS 3 Zrotation Xrotation Yrotation
								JOINT LeftHandIndex1
								{
									OFFSET	 0.000000	 0.086006	 0.000000
									CHANNELS 3 Zrotation Xrotation Yrotation
									JOINT LeftHandIndex2
									{
										OFFSET	 0.000000	 0.047237	 0.000000
										CHANNELS 3 Zrotation Xrotation Yrotation
										JOINT LeftHandIndex3
										{
											OFFSET	-0.004284	 0.038165	 0.000551
											CHANNELS 3 Zrotation Xrotation Yrotation
											End Site
											{
												OFFSET	-0.004284	 0.038165	 0.000551
											}
										}
									}
								}
							}
						}
					}
				}
				JOINT Neck
				{
					OFFSET	 0.000000	 0.176489	 0.000000
					CHANNELS 3 Zrotation Xrotation Yrotation
					JOINT Head
					{
						OFFSET	 0.000000	 0.077941	 0.001747
						CHANNELS 3 Zrotation Xrotation Yrotation
						End Site
						{
							OFFSET	 0.000000	 0.077941	 0.001747
						}
					}
				}
				JOINT RightShoulder
				{
					OFFSET	-0.080363	 0.159706	-0.000306
					CHANNELS 3 Zrotation Xrotation Yrotation
					JOINT RightArm
					{
						OFFSET	 0.000000	 0.164196	 0.000000
						CHANNELS 3 Zrotation Xrotation Yrotation
						JOINT RightForeArm
						{
							OFFSET	 0.000000	 0.365611	 0.000000
							CHANNELS 3 Zrotation Xrotation Yrotation
							JOINT RightHand
							{
								OFFSET	 0.000000	 0.360648	 0.000000
								CHANNELS 3 Zrotation Xrotation Yrotation
								JOINT RightHandIndex1
								{
									OFFSET	 0.000000	 0.069977	 0.000000
									CHANNELS 3 Zrotation Xrotation Yrotation
									JOINT RightHandIndex2
									{
										OFFSET	 0.000000	 0.052305	 0.000000
										CHANNELS 3 Zrotation Xrotation Yrotation
										JOINT RightHandIndex3
										{
											OFFSET	 0.009002	 0.042196	 0.000782
											CHANNELS 3 Zrotation Xrotation Yrotation
											End Site
											{
												OFFSET	 0.009002	 0.042196	 0.000782
											}
										}
									}
								}
							}
						}
					}
				}
			}
		}
	}
}
MOTION
Frames:    13
Frame Time: 0.03333334
 0.019517	 1.267338	 0.003567	-0.359014	 2.591882	-179.055200	-175.882200	 5.172054	-26.859950	 3.329662	-16.393520	 5.324117	 0.826274	 68.937010	 0.073608	 1.331492	 28.938720	-2.729976	 176.040800	 5.808390	 34.947920	-5.627897	-17.928020	-7.079017	-0.894487	 71.507650	 0.404638	-1.291262	 28.406240	 2.884996	-2.058885	 4.665187	 22.772190	-0.698736	 0.492406	 4.854650	-1.037545	 3.933348	-14.901380	-113.441900	 5.156867	 92.938770	 39.200570	 42.947860	 10.486090	 6.884883	-0.254313	-5.760564	 4.656505	-0.237498	 63.382690	-6.580301	 5.266122	 0.000000	 0.000000	 0.000000	 0.000000	 0.000000	 0.000000	 0.000000	 4.660573	-0.200314	-0.642696	 5.025620	 0.374171	-2.933921	 114.229500	-4.481930	-88.294910	-17.489340	 18.857000	-16.589220	-99.836400	-2.142975	 3.118430	 12.087350	-13.840780	-39.497260	-0.816784	 22.983270	 0.877294	 12.438390	 21.444860	-4.811783	-8.461882	 9.505297	-0.298783
 0.020374	 1.267061	 0.005167	-0.433072	 2.673638	-178.963600	-175.927400	 5.244727	-26.737920	 3.333719	-16.412450	 5.508906	 1.307804	 68.895480	-0.435089	 1.331492	 28.938720	-2.729976	 175.949800	 5.935648	 35.108680	-5.717233	-18.193120	-7.219170	-1.354651	 71.631650	 0.817679	-1.290923	 28.403310	 2.912950	-1.590163	 4.862806	 17.115370	-0.677779	 0.715837	 4.719876	-1.138640	 3.810605	-14.881750	-113.442700	 5.087520	 92.920230	 38.696890	 43.302850	 10.988840	 5.632979	-0.253819	-2.165334	 5.406925	 0.642109	 64.693080	-6.580301	 5.266122	 0.000000	 0.000000	 0.000000	 0.000000	 0.000000	 0.000000	 0.000000	 4.479043	-0.177832	-0.702904	 4.970763	 0.292282	-3.063317	 114.221600	-4.427240	-88.329820	-14.077450	 20.382120	-21.489320	-93.518420	-2.220531	-0.236984	 14.856750	-9.367609	-32.108540	-0.846464	 23.727480	 0.889059	 12.486910	 22.171850	-4.984835	-8.466488	 9.872518	-0.321928
 0.021234	 1.266707	 0.006711	-0.398471	 2.844024	-179.595700	-175.750600	 5.109660	-27.373780	 3.362191	-16.544820	 5.172173	 0.294862	 68.871510	 0.561202	 1.331492	 28.938720	-2.729976	 176.060700	 6.094784	 34.431110	-5.805537	-18.454320	-7.913529	-3.553158	 71.705710	 3.020040	-1.291780	 28.414830	 2.921395	-1.094278	 5.032074	 11.352740	-0.681013	 0.926049	 4.715041	-1.134188	 3.707566	-14.763320	-113.443900	 5.075753	 92.931860	 38.427810	 43.436730	 11.778400	 5.443841	-0.253766	 1.478308	 4.743641	 2.017521	 66.067610	-6.580301	 5.266122	 0.000000	 0.000000	 0.000000	 0.000000	 0.000000	 0.000000	 0.000000	 4.298508	-0.156717	-0.732628	 4.853199	 0.377938	-3.056268	 114.215900	-4.388448	-88.355670	-11.846910	 22.066430	-29.010700	-84.134280	-2.220341	-3.513127	 14.081790	-12.077780	-27.496730	-0.799779	 22.553120	 0.870712	 12.411530	 21.024610	-4.712440	-8.459446	 9.315475	-0.286824
 0.021752	 1.266335	 0.008257	-0.353752	 3.012334	 179.773200	-175.571300	 4.954812	-28.006380	 3.397435	-16.708440	 4.839748	-0.715417	 68.892800	 1.549380	 1.331492	 28.938720	-2.729976	 176.151500	 6.265501	 33.753400	-5.904605	-18.746390	-8.601578	-5.697208	 71.761570	 5.193308	-1.292637	 28.426320	 2.929819	-0.569967	 5.149906	 5.371307	-0.694834	 1.038338	 4.526062	-1.120100	 3.649486	-14.625620	-113.445000	 5.064041	 92.943470	 38.078950	 43.508460	 12.613470	 6.722880	-0.255209	 5.110505	 3.922311	 3.450500	 66.481200	-6.580301	 5.266122	 0.000000	 0.000000	 0.000000	 0.000000	 0.000000	 0.000000	 0.000000	 4.118448	-0.135563	-0.762209	 4.736138	 0.464700	-3.044160	 114.210300	-4.349755	-88.381460	-12.032710	 26.491700	-35.680200	-69.663920	-2.042855	-6.586013	 9.738293	-14.445690	-22.909100	-0.753989	 21.381530	 0.853584	 12.342670	 19.879750	-4.444306	-8.452090	 8.759844	-0.251794
 0.022031	 1.266044	 0.009713	-0.298043	 3.182632	 179.128100	-175.397600	 4.761809	-28.650810	 3.427414	-16.847340	 4.500189	-1.736287	 68.917070	 2.553547	 1.331492	 28.938720	-2.729976	 176.250000	 6.393220	 33.058190	-5.984848	-18.982160	-9.289227	-7.836741	 71.768750	 7.374459	-1.293514	 28.438050	 2.938421	-0.022393	 5.210384	-0.697148	-0.668388	 1.098678	 4.290243	-1.122668	 3.616750	-14.463870	-113.446200	 5.052056	 92.955310	 37.730010	 43.595440	 13.455050	 8.017256	-0.256548	 8.788714	 3.021071	 4.917388	 66.162480	-6.580301	 5.266122	 0.000000	 0.000000	 0.000000	 0.000000	 0.000000	 0.000000	 0.000000	 3.934636	-0.113871	-0.792340	 4.616850	 0.554660	-3.026461	 114.204600	-4.310252	-88.407810	-16.478400	 34.624870	-38.526360	-46.560450	-1.516793	-9.490135	 2.005379	-15.336780	-18.139920	-0.707992	 20.185450	 0.837263	 12.278710	 18.710670	-4.173996	-8.444238	 8.192606	-0.216010
 0.022160	 1.265953	 0.010933	-0.230295	 3.355698	 178.466000	-175.242400	 4.514833	-29.310060	 3.438809	-16.900170	 4.148193	-2.750500	 68.900720	 3.569190	 1.331492	 28.938720	-2.729976	 176.381800	 6.414212	 32.341190	-6.012933	-19.064540	-9.967662	-9.962451	 71.694790	 9.541465	-1.294414	 28.450070	 2.947233	 0.532648	 5.212405	-6.580229	-0.546442	 1.144636	 4.160344	-1.170384	 3.592976	-14.274930	-113.447300	 5.039770	 92.967430	 37.477420	 43.787430	 14.239170	 9.327444	-0.257851	 12.503600	 2.105965	 6.334166	 65.334010	-6.580301	 5.266122	 0.000000	 0.000000	 0.000000	 0.000000	 0.000000	 0.000000	 0.000000	 3.746329	-0.091547	-0.823137	 4.494880	 0.648287	-3.002636	 114.198800	-4.269765	-88.434770	-30.947920	 47.133630	-31.958730	-9.468066	-0.201159	-12.522460	-11.414550	-14.675120	-12.976230	-0.661604	 18.960280	 0.821723	 12.219630	 17.512900	-3.900400	-8.435832	 7.611489	-0.179319
 0.022246	 1.265986	 0.011379	-0.225391	 3.416161	 178.282800	-175.226400	 4.420865	-29.467520	 3.431621	-16.866870	 4.014284	-3.108242	 68.862010	 3.938128	 1.331492	 28.938720	-2.729976	 176.408600	 6.394661	 32.143160	-6.013124	-19.065080	-9.982697	-10.028070	 71.653240	 9.581619	-1.295844	 28.468140	 2.938205	 1.004286	 5.116284	-12.044860	-0.524064	 1.297401	 4.044701	-1.165434	 3.397797	-13.972730	-113.447700	 5.015963	 92.962590	 37.347960	 44.008790	 14.498970	 10.597560	-0.259087	 16.101000	 1.428305	 7.490304	 63.448000	-6.580301	 5.266122	 0.000000	 0.000000	 0.000000	 0.000000	 0.000000	 0.000000	 0.000000	 3.662478	-0.140130	-0.821303	 4.381565	 0.652492	-2.897471	 114.196200	-4.253358	-88.447690	-28.439380	 48.027960	-34.135360	-10.619050	-0.197341	-16.117710	-9.975532	-12.910510	-10.043860	-0.630104	 18.117940	 0.811708	 12.182690	 16.689260	-3.714070	-8.429208	 7.170238	-0.151429
 0.022335	 1.266049	 0.011640	-0.242676	 3.437704	 178.267500	-175.254800	 4.385280	-29.448490	 3.420152	-16.813790	 3.956186	-3.243448	 68.821410	 4.085379	 1.331492	 28.938720	-2.729976	 176.394700	 6.373450	 32.127510	-6.008885	-19.052640	-9.762085	-9.363209	 71.629250	 8.867878	-1.297486	 28.488740	 2.922600	 1.409702	 4.970354	-17.158030	-0.537746	 1.481368	 3.885927	-1.140191	 3.138199	-13.608590	-113.447900	 4.987551	 92.951600	 37.194650	 44.269670	 14.616310	 11.853920	-0.260363	 19.655820	 0.897775	 8.337517	 60.639900	-6.580301	 5.266122	 0.000000	 0.000000	 0.000000	 0.000000	 0.000000	 0.000000	 0.000000	 3.614426	-0.215122	-0.807806	 4.268917	 0.625012	-2.757165	 114.194900	-4.245278	-88.455830	-26.999010	 48.526540	-34.983690	-11.839590	-0.196744	-19.670850	-10.163020	-11.615640	-7.448587	-0.603342	 17.395870	 0.803545	 12.153360	 15.983130	-3.555413	-8.423024	 6.770367	-0.126131
 0.022415	 1.266166	 0.011901	-0.257514	 3.459564	 178.251800	-175.286600	 4.340743	-29.428950	 3.404264	-16.740110	 3.895429	-3.375272	 68.770010	 4.233447	 1.331492	 28.938720	-2.729976	 176.387700	 6.328756	 32.110890	-5.991989	-19.003090	-9.529499	-8.669074	 71.587220	 8.122220	-1.299164	 28.509860	 2.906598	 1.722012	 4.817592	-21.766650	-0.454353	 1.668056	 3.728196	-1.159742	 2.870968	-13.209320	-113.448000	 4.958412	 92.940300	 37.019450	 44.593760	 14.745030	 13.099460	-0.261403	 23.174590	 0.459525	 8.821512	 57.087120	-6.580301	 5.266122	 0.000000	 0.000000	 0.000000	 0.000000	 0.000000	 0.000000	 0.000000	 3.565177	-0.292023	-0.794034	 4.153225	 0.597500	-2.606842	 114.193400	-4.236973	-88.464160	-25.425450	 49.085550	-35.959470	-13.066600	-0.196778	-23.188120	-10.104950	-10.651020	-4.157241	-0.576113	 16.655310	 0.795571	 12.125500	 15.258830	-3.393649	-8.416504	 6.360341	-0.100166
 0.022470	 1.266305	 0.012115	-0.268936	 3.478688	 178.237500	-175.317400	 4.294903	-29.411510	 3.387244	-16.661170	 3.840145	-3.488288	 68.718350	 4.363647	 1.331492	 28.938720	-2.729976	 176.385800	 6.273063	 32.095290	-5.968486	-18.934140	-9.316545	-8.039412	 71.537780	 7.445898	-1.300661	 28.528770	 2.892269	 1.973216	 4.669052	-25.267670	-0.433114	 1.831871	 3.592155	-1.152226	 2.627642	-12.829500	-113.448100	 4.932321	 92.930200	 36.858000	 44.914820	 14.861140	 14.168990	-0.262235	 26.198300	 0.155094	 8.891068	 53.351470	-6.580301	 5.266122	 0.000000	 0.000000	 0.000000	 0.000000	 0.000000	 0.000000	 0.000000	 3.521098	-0.360885	-0.781759	 4.049459	 0.573369	-2.466540	 114.192200	-4.229540	-88.471620	-23.953340	 49.606540	-36.901450	-14.135350	-0.197272	-26.210660	-9.803596	-10.106150	-0.707172	-0.551908	 15.992130	 0.788767	 12.102420	 14.610170	-3.249561	-8.410510	 5.993214	-0.076895
 0.022502	 1.266488	 0.012324	-0.280418	 3.500386	 178.221600	-175.354900	 4.236701	-29.391600	 3.365705	-16.561110	 3.777110	-3.611394	 68.656320	 4.508523	 1.331492	 28.938720	-2.729976	 176.386500	 6.196150	 32.077580	-5.935217	-18.836420	-9.071875	-7.321344	 71.472240	 6.675252	-1.302343	 28.550110	 2.876101	 2.179896	 4.514771	-28.423470	-0.396378	 2.018885	 3.441415	-1.149649	 2.347854	-12.374650	-113.448300	 4.902884	 92.918810	 36.679100	 45.290000	 14.991750	 15.321230	-0.263277	 29.445690	-0.103599	 8.538157	 48.542390	-6.580301	 5.266122	 0.000000	 0.000000	 0.000000	 0.000000	 0.000000	 0.000000	 0.000000	 3.471385	-0.438587	-0.767973	 3.932143	 0.546587	-2.301571	 114.190700	-4.221150	-88.480060	-22.256500	 50.195650	-38.012090	-15.294260	-0.198180	-29.456720	-9.150254	-9.844433	 3.712832	-0.524788	 15.243820	 0.781465	 12.078470	 13.878170	-3.087795	-8.403573	 5.579006	-0.050611
 0.022492	 1.266690	 0.012487	-0.291277	 3.522485	 178.204800	-175.395900	 4.171591	-29.371680	 3.342264	-16.452200	 3.712235	-3.734184	 68.592750	 4.655267	 1.331492	 28.938720	-2.729976	 176.388100	 6.107482	 32.058660	-5.896910	-18.723730	-8.818281	-6.582287	 71.398540	 5.883503	-1.304054	 28.571890	 2.859593	 2.307480	 4.384750	-30.706820	-0.355455	 2.213335	 3.289429	-1.148495	 2.055918	-11.880940	-113.448500	 4.872829	 92.907160	 36.517500	 45.664360	 15.113800	 16.424450	-0.263930	 32.559660	-0.296336	 7.708988	 43.037610	-6.580301	 5.266122	 0.000000	 0.000000	 0.000000	 0.000000	 0.000000	 0.000000	 0.000000	 3.420658	-0.517915	-0.753971	 3.812104	 0.519607	-2.125697	 114.189300	-4.212605	-88.488650	-20.532550	 50.773860	-39.151750	-16.416680	-0.199411	-32.569670	-8.118388	-9.930463	 8.742240	-0.497301	 14.479930	 0.774413	 12.056290	 13.130870	-2.923498	-8.396300	 5.156191	-0.023747
 0.022427	 1.266894	 0.012586	-0.302042	 3.544274	 178.188200	-175.439800	 4.101927	-29.351590	 3.318229	-16.340320	 3.647015	-3.855614	 68.531750	 4.801708	 1.331492	 28.938720	-2.729976	 176.388400	 6.013718	 32.039610	-5.857396	-18.607330	-8.560985	-5.835305	 71.322270	 5.085625	-1.305763	 28.593750	 2.843028	 2.353029	 4.291370	-31.996870	-0.321820	 2.413355	 3.136457	-1.143574	 1.755857	-11.355050	-113.448600	 4.842679	 92.895520	 36.390850	 46.005880	 15.217570	 17.450410	-0.264477	 35.458870	-0.451837	 6.431388	 36.974230	-6.580301	 5.266122	 0.000000	 0.000000	 0.000000	 0.000000	 0.000000	 0.000000	 0.000000	 3.369781	-0.597522	-0.739992	 3.691331	 0.492751	-1.941553	 114.187800	-4.204016	-88.497280	-18.880450	 51.305780	-40.242630	-17.467100	-0.200623	-35.467980	-6.706260	-10.317070	 14.249600	-0.469913	 13.713500	 0.767742	 12.036310	 12.381030	-2.759439	-8.388808	 4.731968	 0.003243
